<svg xmlns="http://www.w3.org/2000/svg" width="2em" height="2em" viewBox="0 0 24 24"><path fill="#5e81ac" d="M12 2a1 1 0 0 1 1 1v4a1 1 0 0 1-2 0V3a1 1 0 0 1 1-1m0 16a1 1 0 0 1 1 1v4a1 1 0 0 1-2 0v-4a1 1 0 0 1 1-1m8.07-7.07a1 1 0 0 1 0-1.42l3-3a1 1 0 0 1 1.42 1.42l-3 3a1 1 0 0 1-1.42 0M2.5 6.93a1 1 0 0 1 0 1.41l-3 3a1 1 0 0 1-1.41-1.41l3-3a1 1 0 0 1 1.41 0m15.57 8.48a1 1 0 0 1 0 1.42l-3 3a1 1 0 0 1-1.42-1.42l3-3a1 1 0 0 1 1.42 0M5.5 3.93a1 1 0 0 1 0-1.41l3-3a1 1 0 0 1 1.41 1.41l-3 3a1 1 0 0 1-1.41 0m-4 7.07a1 1 0 0 1-1-1H.5a1 1 0 0 1 0-2h4a1 1 0 0 1 0 2H2.5a1 1 0 0 1-1 1m16 0a1 1 0 0 1-1-1h-4a1 1 0 0 1 0-2h4a1 1 0 0 1 0 2h-1a1 1 0 0 1-1 1"/></svg>